<?xml version="1.0" encoding="utf-8" standalone="no"?>
<!DOCTYPE svg PUBLIC "-//W3C//DTD SVG 1.1//EN"
  "http://www.w3.org/Graphics/SVG/1.1/DTD/svg11.dtd">
<!-- Created with matplotlib (https://matplotlib.org/) -->
<svg height="576pt" version="1.1" viewBox="0 0 576 576" width="576pt" xmlns="http://www.w3.org/2000/svg" xmlns:xlink="http://www.w3.org/1999/xlink">
 <metadata>
  <rdf:RDF xmlns:cc="http://creativecommons.org/ns#" xmlns:dc="http://purl.org/dc/elements/1.1/" xmlns:rdf="http://www.w3.org/1999/02/22-rdf-syntax-ns#">
   <cc:Work>
    <dc:type rdf:resource="http://purl.org/dc/dcmitype/StillImage"/>
    <dc:date>2024-08-06T18:43:18.519510</dc:date>
    <dc:format>image/svg+xml</dc:format>
    <dc:creator>
     <cc:Agent>
      <dc:title>Matplotlib v3.3.4, https://matplotlib.org/</dc:title>
     </cc:Agent>
    </dc:creator>
   </cc:Work>
  </rdf:RDF>
 </metadata>
 <defs>
  <style type="text/css">*{stroke-linecap:butt;stroke-linejoin:round;}</style>
 </defs>
 <g id="figure_1">
  <g id="patch_1">
   <path d="M 0 576 
L 576 576 
L 576 0 
L 0 0 
z
" style="fill:#ffffff;"/>
  </g>
  <g id="axes_1">
   <g id="patch_2">
    <path d="M 36.8875 464.407364 
L 565.2 464.407364 
L 565.2 111.592636 
L 36.8875 111.592636 
z
" style="fill:#ffffff;"/>
   </g>
   <g id="matplotlib.axis_1">
    <g id="xtick_1">
     <g id="line2d_1">
      <defs>
       <path d="M 0 0 
L 0 3.5 
" id="m56e44e626d" style="stroke:#000000;stroke-width:0.8;"/>
      </defs>
      <g>
       <use style="stroke:#000000;stroke-width:0.8;" x="64.808573" xlink:href="#m56e44e626d" y="464.407364"/>
      </g>
     </g>
     <g id="text_1">
      <!-- 0 -->
      <g transform="translate(61.627323 479.005802)scale(0.1 -0.1)">
       <defs>
        <path d="M 31.78125 66.40625 
Q 24.171875 66.40625 20.328125 58.90625 
Q 16.5 51.421875 16.5 36.375 
Q 16.5 21.390625 20.328125 13.890625 
Q 24.171875 6.390625 31.78125 6.390625 
Q 39.453125 6.390625 43.28125 13.890625 
Q 47.125 21.390625 47.125 36.375 
Q 47.125 51.421875 43.28125 58.90625 
Q 39.453125 66.40625 31.78125 66.40625 
z
M 31.78125 74.21875 
Q 44.046875 74.21875 50.515625 64.515625 
Q 56.984375 54.828125 56.984375 36.375 
Q 56.984375 17.96875 50.515625 8.265625 
Q 44.046875 -1.421875 31.78125 -1.421875 
Q 19.53125 -1.421875 13.0625 8.265625 
Q 6.59375 17.96875 6.59375 36.375 
Q 6.59375 54.828125 13.0625 64.515625 
Q 19.53125 74.21875 31.78125 74.21875 
z
" id="DejaVuSans-48"/>
       </defs>
       <use xlink:href="#DejaVuSans-48"/>
      </g>
     </g>
    </g>
    <g id="xtick_2">
     <g id="line2d_2">
      <g>
       <use style="stroke:#000000;stroke-width:0.8;" x="162.091152" xlink:href="#m56e44e626d" y="464.407364"/>
      </g>
     </g>
     <g id="text_2">
      <!-- 50 -->
      <g transform="translate(155.728652 479.005802)scale(0.1 -0.1)">
       <defs>
        <path d="M 10.796875 72.90625 
L 49.515625 72.90625 
L 49.515625 64.59375 
L 19.828125 64.59375 
L 19.828125 46.734375 
Q 21.96875 47.46875 24.109375 47.828125 
Q 26.265625 48.1875 28.421875 48.1875 
Q 40.625 48.1875 47.75 41.5 
Q 54.890625 34.8125 54.890625 23.390625 
Q 54.890625 11.625 47.5625 5.09375 
Q 40.234375 -1.421875 26.90625 -1.421875 
Q 22.3125 -1.421875 17.546875 -0.640625 
Q 12.796875 0.140625 7.71875 1.703125 
L 7.71875 11.625 
Q 12.109375 9.234375 16.796875 8.0625 
Q 21.484375 6.890625 26.703125 6.890625 
Q 35.15625 6.890625 40.078125 11.328125 
Q 45.015625 15.765625 45.015625 23.390625 
Q 45.015625 31 40.078125 35.4375 
Q 35.15625 39.890625 26.703125 39.890625 
Q 22.75 39.890625 18.8125 39.015625 
Q 14.890625 38.140625 10.796875 36.28125 
z
" id="DejaVuSans-53"/>
       </defs>
       <use xlink:href="#DejaVuSans-53"/>
       <use x="63.623047" xlink:href="#DejaVuSans-48"/>
      </g>
     </g>
    </g>
    <g id="xtick_3">
     <g id="line2d_3">
      <g>
       <use style="stroke:#000000;stroke-width:0.8;" x="259.37373" xlink:href="#m56e44e626d" y="464.407364"/>
      </g>
     </g>
     <g id="text_3">
      <!-- 100 -->
      <g transform="translate(249.82998 479.005802)scale(0.1 -0.1)">
       <defs>
        <path d="M 12.40625 8.296875 
L 28.515625 8.296875 
L 28.515625 63.921875 
L 10.984375 60.40625 
L 10.984375 69.390625 
L 28.421875 72.90625 
L 38.28125 72.90625 
L 38.28125 8.296875 
L 54.390625 8.296875 
L 54.390625 0 
L 12.40625 0 
z
" id="DejaVuSans-49"/>
       </defs>
       <use xlink:href="#DejaVuSans-49"/>
       <use x="63.623047" xlink:href="#DejaVuSans-48"/>
       <use x="127.246094" xlink:href="#DejaVuSans-48"/>
      </g>
     </g>
    </g>
    <g id="xtick_4">
     <g id="line2d_4">
      <g>
       <use style="stroke:#000000;stroke-width:0.8;" x="356.656309" xlink:href="#m56e44e626d" y="464.407364"/>
      </g>
     </g>
     <g id="text_4">
      <!-- 150 -->
      <g transform="translate(347.112559 479.005802)scale(0.1 -0.1)">
       <use xlink:href="#DejaVuSans-49"/>
       <use x="63.623047" xlink:href="#DejaVuSans-53"/>
       <use x="127.246094" xlink:href="#DejaVuSans-48"/>
      </g>
     </g>
    </g>
    <g id="xtick_5">
     <g id="line2d_5">
      <g>
       <use style="stroke:#000000;stroke-width:0.8;" x="453.938888" xlink:href="#m56e44e626d" y="464.407364"/>
      </g>
     </g>
     <g id="text_5">
      <!-- 200 -->
      <g transform="translate(444.395138 479.005802)scale(0.1 -0.1)">
       <defs>
        <path d="M 19.1875 8.296875 
L 53.609375 8.296875 
L 53.609375 0 
L 7.328125 0 
L 7.328125 8.296875 
Q 12.9375 14.109375 22.625 23.890625 
Q 32.328125 33.6875 34.8125 36.53125 
Q 39.546875 41.84375 41.421875 45.53125 
Q 43.3125 49.21875 43.3125 52.78125 
Q 43.3125 58.59375 39.234375 62.25 
Q 35.15625 65.921875 28.609375 65.921875 
Q 23.96875 65.921875 18.8125 64.3125 
Q 13.671875 62.703125 7.8125 59.421875 
L 7.8125 69.390625 
Q 13.765625 71.78125 18.9375 73 
Q 24.125 74.21875 28.421875 74.21875 
Q 39.75 74.21875 46.484375 68.546875 
Q 53.21875 62.890625 53.21875 53.421875 
Q 53.21875 48.921875 51.53125 44.890625 
Q 49.859375 40.875 45.40625 35.40625 
Q 44.1875 33.984375 37.640625 27.21875 
Q 31.109375 20.453125 19.1875 8.296875 
z
" id="DejaVuSans-50"/>
       </defs>
       <use xlink:href="#DejaVuSans-50"/>
       <use x="63.623047" xlink:href="#DejaVuSans-48"/>
       <use x="127.246094" xlink:href="#DejaVuSans-48"/>
      </g>
     </g>
    </g>
    <g id="xtick_6">
     <g id="line2d_6">
      <g>
       <use style="stroke:#000000;stroke-width:0.8;" x="551.221466" xlink:href="#m56e44e626d" y="464.407364"/>
      </g>
     </g>
     <g id="text_6">
      <!-- 250 -->
      <g transform="translate(541.677716 479.005802)scale(0.1 -0.1)">
       <use xlink:href="#DejaVuSans-50"/>
       <use x="63.623047" xlink:href="#DejaVuSans-53"/>
       <use x="127.246094" xlink:href="#DejaVuSans-48"/>
      </g>
     </g>
    </g>
   </g>
   <g id="matplotlib.axis_2">
    <g id="ytick_1">
     <g id="line2d_7">
      <defs>
       <path d="M 0 0 
L -3.5 0 
" id="m2b2c7c1ba0" style="stroke:#000000;stroke-width:0.8;"/>
      </defs>
      <g>
       <use style="stroke:#000000;stroke-width:0.8;" x="36.8875" xlink:href="#m2b2c7c1ba0" y="449.343157"/>
      </g>
     </g>
     <g id="text_7">
      <!-- 0 -->
      <g transform="translate(23.525 453.142375)scale(0.1 -0.1)">
       <use xlink:href="#DejaVuSans-48"/>
      </g>
     </g>
    </g>
    <g id="ytick_2">
     <g id="line2d_8">
      <g>
       <use style="stroke:#000000;stroke-width:0.8;" x="36.8875" xlink:href="#m2b2c7c1ba0" y="400.701867"/>
      </g>
     </g>
     <g id="text_8">
      <!-- 25 -->
      <g transform="translate(17.1625 404.501086)scale(0.1 -0.1)">
       <use xlink:href="#DejaVuSans-50"/>
       <use x="63.623047" xlink:href="#DejaVuSans-53"/>
      </g>
     </g>
    </g>
    <g id="ytick_3">
     <g id="line2d_9">
      <g>
       <use style="stroke:#000000;stroke-width:0.8;" x="36.8875" xlink:href="#m2b2c7c1ba0" y="352.060578"/>
      </g>
     </g>
     <g id="text_9">
      <!-- 50 -->
      <g transform="translate(17.1625 355.859797)scale(0.1 -0.1)">
       <use xlink:href="#DejaVuSans-53"/>
       <use x="63.623047" xlink:href="#DejaVuSans-48"/>
      </g>
     </g>
    </g>
    <g id="ytick_4">
     <g id="line2d_10">
      <g>
       <use style="stroke:#000000;stroke-width:0.8;" x="36.8875" xlink:href="#m2b2c7c1ba0" y="303.419289"/>
      </g>
     </g>
     <g id="text_10">
      <!-- 75 -->
      <g transform="translate(17.1625 307.218507)scale(0.1 -0.1)">
       <defs>
        <path d="M 8.203125 72.90625 
L 55.078125 72.90625 
L 55.078125 68.703125 
L 28.609375 0 
L 18.3125 0 
L 43.21875 64.59375 
L 8.203125 64.59375 
z
" id="DejaVuSans-55"/>
       </defs>
       <use xlink:href="#DejaVuSans-55"/>
       <use x="63.623047" xlink:href="#DejaVuSans-53"/>
      </g>
     </g>
    </g>
    <g id="ytick_5">
     <g id="line2d_11">
      <g>
       <use style="stroke:#000000;stroke-width:0.8;" x="36.8875" xlink:href="#m2b2c7c1ba0" y="254.777999"/>
      </g>
     </g>
     <g id="text_11">
      <!-- 100 -->
      <g transform="translate(10.8 258.577218)scale(0.1 -0.1)">
       <use xlink:href="#DejaVuSans-49"/>
       <use x="63.623047" xlink:href="#DejaVuSans-48"/>
       <use x="127.246094" xlink:href="#DejaVuSans-48"/>
      </g>
     </g>
    </g>
    <g id="ytick_6">
     <g id="line2d_12">
      <g>
       <use style="stroke:#000000;stroke-width:0.8;" x="36.8875" xlink:href="#m2b2c7c1ba0" y="206.13671"/>
      </g>
     </g>
     <g id="text_12">
      <!-- 125 -->
      <g transform="translate(10.8 209.935929)scale(0.1 -0.1)">
       <use xlink:href="#DejaVuSans-49"/>
       <use x="63.623047" xlink:href="#DejaVuSans-50"/>
       <use x="127.246094" xlink:href="#DejaVuSans-53"/>
      </g>
     </g>
    </g>
    <g id="ytick_7">
     <g id="line2d_13">
      <g>
       <use style="stroke:#000000;stroke-width:0.8;" x="36.8875" xlink:href="#m2b2c7c1ba0" y="157.495421"/>
      </g>
     </g>
     <g id="text_13">
      <!-- 150 -->
      <g transform="translate(10.8 161.294639)scale(0.1 -0.1)">
       <use xlink:href="#DejaVuSans-49"/>
       <use x="63.623047" xlink:href="#DejaVuSans-53"/>
       <use x="127.246094" xlink:href="#DejaVuSans-48"/>
      </g>
     </g>
    </g>
   </g>
   <g id="line2d_14">
    <path clip-path="url(#p099829c5db)" d="M 144.253418 203.938124 
L 124.972011 204.113232 
L 112.558754 207.907253 
L 109.815385 215.670403 
L 109.815385 215.670403 
L 107.324951 222.752574 
L 113.122993 232.266811 
L 125.400054 243.143003 
L 125.400054 243.143003 
L 129.797227 229.192681 
L 136.178964 216.040077 
L 144.253418 203.938124 
" style="fill:none;stroke:#1f77b4;stroke-linecap:square;stroke-width:2;"/>
   </g>
   <g id="line2d_15">
    <path clip-path="url(#p099829c5db)" d="M 463.009515 315.540698 
L 460.110494 331.066998 
L 454.779409 345.834493 
L 447.40539 359.492967 
L 447.40539 359.492967 
L 468.068209 359.629163 
L 481.415379 355.835142 
L 484.275487 347.741232 
L 484.275487 347.741232 
L 487.116138 339.647321 
L 479.138967 328.362542 
L 463.009515 315.540698 
L 463.009515 315.540698 
L 463.009515 315.540698 
" style="fill:none;stroke:#ff7f0e;stroke-linecap:square;stroke-width:2;"/>
   </g>
   <g id="line2d_16">
    <path clip-path="url(#p099829c5db)" d="M 463.009515 315.540698 
L 433.863655 292.329075 
L 378.101281 264.09767 
L 311.54054 240.613656 
L 311.54054 240.613656 
L 243.559474 216.643229 
L 181.240254 203.607363 
L 144.253418 203.938124 
L 144.253418 203.938124 
L 136.178964 216.040077 
L 129.797227 229.192681 
L 125.400054 243.143003 
L 125.400054 243.143003 
L 123.629511 248.785393 
L 122.170273 254.563978 
L 121.061251 260.459302 
L 121.061251 260.459302 
L 119.387991 269.409299 
L 118.512448 278.612231 
L 118.512448 288.009728 
L 118.512448 288.009728 
L 118.512448 376.575788 
L 196.202315 448.370331 
L 292.045111 448.370331 
L 292.045111 448.370331 
L 353.060745 448.370331 
L 406.721815 419.263383 
L 437.657675 375.233288 
L 437.657675 375.233288 
L 441.218218 370.174594 
L 444.467456 364.921335 
L 447.40539 359.492967 
L 447.40539 359.492967 
L 454.779409 345.834493 
L 460.110494 331.066998 
L 463.009515 315.540698 
L 463.009515 315.540698 
L 463.009515 315.540698 
" style="fill:none;stroke:#2ca02c;stroke-linecap:square;stroke-width:2;"/>
   </g>
   <g id="line2d_17">
    <path clip-path="url(#p099829c5db)" d="M 465.461036 282.484078 
L 462.309081 196.466822 
L 385.883887 127.629669 
L 292.045111 127.629669 
L 292.045111 127.629669 
L 242.567192 127.629669 
L 197.933945 146.774881 
L 166.336563 177.457806 
L 166.336563 177.457806 
L 210.074811 183.080739 
L 264.416859 196.330626 
L 321.716298 216.545946 
L 321.716298 216.545946 
L 378.101281 236.430505 
L 428.046156 259.758867 
L 465.461036 282.484078 
" style="fill:none;stroke:#d62728;stroke-linecap:square;stroke-width:2;"/>
   </g>
   <g id="line2d_18">
    <path clip-path="url(#p099829c5db)" d="M 465.461036 282.484078 
L 428.046156 259.758867 
L 378.101281 236.430505 
L 321.716298 216.545946 
L 321.716298 216.545946 
L 264.416859 196.330626 
L 210.074811 183.080739 
L 166.336563 177.457806 
L 166.336563 177.457806 
L 111.430276 170.395091 
L 73.198222 175.337046 
L 66.738659 193.665083 
L 66.738659 193.665083 
L 60.901705 210.242035 
L 82.109307 234.56268 
L 121.061251 260.459302 
L 121.061251 260.459302 
L 122.170273 254.563978 
L 123.629511 248.785393 
L 125.400054 243.143003 
L 125.400054 243.143003 
L 113.122993 232.266811 
L 107.324951 222.752574 
L 109.815385 215.670403 
L 109.815385 215.670403 
L 112.558754 207.907253 
L 124.972011 204.113232 
L 144.253418 203.938124 
L 144.253418 203.938124 
L 181.240254 203.607363 
L 243.559474 216.643229 
L 311.54054 240.613656 
L 311.54054 240.613656 
L 378.101281 264.09767 
L 433.863655 292.329075 
L 463.009515 315.540698 
L 463.009515 315.540698 
L 479.138967 328.362542 
L 487.116138 339.647321 
L 484.275487 347.741232 
L 484.275487 347.741232 
L 481.415379 355.835142 
L 468.068209 359.629163 
L 447.40539 359.492967 
L 447.40539 359.492967 
L 444.467456 364.921335 
L 441.218218 370.174594 
L 437.657675 375.233288 
L 437.657675 375.233288 
L 491.163094 381.809591 
L 528.266669 376.73144 
L 534.62895 358.69525 
L 534.62895 358.69525 
L 541.185795 340.133734 
L 513.752108 311.824504 
L 465.461036 282.484078 
L 465.461036 282.484078 
L 465.461036 282.484078 
" style="fill:none;stroke:#9467bd;stroke-linecap:square;stroke-width:2;"/>
   </g>
   <g id="patch_3">
    <path d="M 36.8875 464.407364 
L 36.8875 111.592636 
" style="fill:none;stroke:#000000;stroke-linecap:square;stroke-linejoin:miter;stroke-width:0.8;"/>
   </g>
   <g id="patch_4">
    <path d="M 565.2 464.407364 
L 565.2 111.592636 
" style="fill:none;stroke:#000000;stroke-linecap:square;stroke-linejoin:miter;stroke-width:0.8;"/>
   </g>
   <g id="patch_5">
    <path d="M 36.8875 464.407364 
L 565.2 464.407364 
" style="fill:none;stroke:#000000;stroke-linecap:square;stroke-linejoin:miter;stroke-width:0.8;"/>
   </g>
   <g id="patch_6">
    <path d="M 36.8875 111.592636 
L 565.2 111.592636 
" style="fill:none;stroke:#000000;stroke-linecap:square;stroke-linejoin:miter;stroke-width:0.8;"/>
   </g>
  </g>
 </g>
 <defs>
  <clipPath id="p099829c5db">
   <rect height="352.814728" width="528.3125" x="36.8875" y="111.592636"/>
  </clipPath>
 </defs>
</svg>
