<?xml version="1.0" encoding="utf-8" ?>
<svg baseProfile="tiny" height="100%" shape-rendering="crispEdges" version="1.2" width="100%" xmlns="http://www.w3.org/2000/svg" xmlns:ev="http://www.w3.org/2001/xml-events" xmlns:xlink="http://www.w3.org/1999/xlink"><defs /><g><path d="M 109.14299774169922 125.58000183105469 L 110.15747833251953 125.49578094482422 L 111.17194366455078 125.40398406982422 L 112.18638610839844 125.30522155761719 L 113.20079040527344 125.20011138916016 L 114.21517181396484 125.08926391601562 L 115.22950744628906 124.9732894897461 L 116.2437973022461 124.85279083251953 L 117.25804138183594 124.72838592529297 L 118.27222442626953 124.6006851196289 L 119.2863540649414 124.47029876708984 L 120.3004150390625 124.33782958984375 L 121.31440734863281 124.20390319824219 L 122.32831573486328 124.06912231445312 L 123.34214782714844 123.9341049194336 L 124.35589599609375 123.79945373535156 L 125.36954498291016 123.66577911376953 L 126.38310241699219 123.53369140625 L 127.39655303955078 123.40380859375 L 128.40989685058594 123.27674102783203 L 129.42312622070312 123.15309143066406 L 130.4362335205078 123.03347778320312 L 131.44923400878906 122.91851043701172 L 132.4620819091797 122.80879974365234 L 133.4748077392578 122.70494842529297 L 134.48739624023438 122.60758209228516 L 135.4998321533203 122.51730346679688 L 136.5121307373047 122.4347152709961 L 137.52426147460938 122.3604507446289 L 138.53623962402344 122.29509735107422 L 139.54803466796875 122.2392807006836 L 140.55967712402344 122.193603515625 L 141.57113647460938 122.15868377685547 L 142.58241271972656 122.13512420654297 L 143.59349060058594 122.12354278564453 L 144.60440063476562 122.12454986572266 L 145.61509704589844 122.13874816894531 L 146.62559509277344 122.16675567626953 L 147.63587951660156 122.20919036865234 L 148.6459503173828 122.26664733886719 L 149.6558074951172 122.3397445678711 L 150.66543579101562 122.4291000366211 L 151.67483520507812 122.53530883789062 L 152.6840057373047 122.65899658203125 L 153.7008514404297 122.80228424072266 L 154.7144012451172 122.96405792236328 L 155.7244415283203 123.1441421508789 L 156.73077392578125 123.34232330322266 L 157.73316955566406 123.55842590332031 L 158.7313995361328 123.79224395751953 L 159.72528076171875 124.0436019897461 L 160.71458435058594 124.31228637695312 L 161.69911193847656 124.5981216430664 L 162.67861938476562 124.9009017944336 L 163.6529083251953 125.22045135498047 L 164.62176513671875 125.55655670166016 L 165.58499145507812 125.90904235839844 L 166.54234313964844 126.2777099609375 L 167.49362182617188 126.66236114501953 L 168.43862915039062 127.06280517578125 L 169.3771209716797 127.4788589477539 L 170.30889892578125 127.91032409667969 L 171.23374938964844 128.35699462890625 L 172.15145874023438 128.81871032714844 L 173.0618133544922 129.2952423095703 L 173.964599609375 129.7864227294922 L 174.85958862304688 130.2920379638672 L 175.74659729003906 130.81192016601562 L 176.62538146972656 131.34585571289062 L 177.49574279785156 131.89366149902344 L 178.3574676513672 132.45513916015625 L 179.2103271484375 133.03012084960938 L 180.0541229248047 133.61837768554688 L 180.88864135742188 134.2197265625 L 181.7136688232422 134.833984375 L 182.52899169921875 135.46096801757812 L 183.33438110351562 136.1004638671875 L 184.12962341308594 136.75228881835938 L 184.91453552246094 137.41624450683594 L 185.68887329101562 138.09214782714844 L 186.4524383544922 138.77980041503906 L 187.2050018310547 139.47900390625 L 187.94650268554688 140.18939208984375 L 188.67697143554688 140.9105682373047 L 189.39637756347656 141.64236450195312 L 190.10472106933594 142.38455200195312 L 190.8019561767578 143.13694763183594 L 191.48805236816406 143.89935302734375 L 192.16297912597656 144.6715545654297 L 192.8267364501953 145.453369140625 L 193.47926330566406 146.24459838867188 L 194.12054443359375 147.04502868652344 L 194.7505645751953 147.85447692871094 L 195.36929321289062 148.6727294921875 L 195.9766845703125 149.49960327148438 L 196.57273864746094 150.33489990234375 L 197.15740966796875 151.17840576171875 L 197.7306671142578 152.02992248535156 L 198.29249572753906 152.88926696777344 L 198.84286499023438 153.75624084472656 L 199.38174438476562 154.63063049316406 L 199.90911865234375 155.51223754882812 L 200.42494201660156 156.40087890625 L 200.92921447753906 157.2963409423828 L 201.421875 158.19842529296875 L 201.90292358398438 159.10694885253906 L 202.372314453125 160.02169799804688 L 202.8300323486328 160.94247436523438 L 203.2760467529297 161.8690948486328 L 203.7103271484375 162.8013458251953 L 204.1328582763672 163.73902893066406 L 204.54359436035156 164.68194580078125 L 204.94252014160156 165.62989807128906 L 205.32960510253906 166.58270263671875 L 205.704833984375 167.54014587402344 L 206.0681610107422 168.5020294189453 L 206.41957092285156 169.46815490722656 L 206.759033203125 170.43832397460938 L 207.08651733398438 171.41233825683594 L 207.40199279785156 172.38999938964844 L 207.7174072265625 173.41233825683594 L 208.01927185058594 174.44024658203125 L 208.30667114257812 175.4733428955078 L 208.57861328125 176.51119995117188 L 208.8341827392578 177.55345153808594 L 209.07241821289062 178.59970092773438 L 209.29237365722656 179.64955139160156 L 209.4930877685547 180.70262145996094 L 209.67361450195312 181.7584991455078 L 209.83302307128906 182.81680297851562 L 209.9703369140625 183.8771514892578 L 210.08462524414062 184.9391326904297 L 210.1749267578125 186.0023651123047 L 210.24029541015625 187.0664520263672 L 210.27978515625 188.13099670410156 L 210.2924346923828 189.1956024169922 L 210.27731323242188 190.25990295410156 L 210.23345947265625 191.323486328125 L 210.159912109375 192.38595581054688 L 210.05575561523438 193.44692993164062 L 209.9199981689453 194.50599670410156 L 209.74794006347656 195.58335876464844 L 209.54348754882812 196.6536865234375 L 209.30767822265625 197.71676635742188 L 209.04151916503906 198.77232360839844 L 208.7460479736328 199.82012939453125 L 208.42225646972656 200.85995483398438 L 208.07119750976562 201.89154052734375 L 207.69387817382812 202.91464233398438 L 207.2913055419922 203.9290313720703 L 206.86451721191406 204.9344482421875 L 206.41453552246094 205.9306640625 L 205.94236755371094 206.91744995117188 L 205.4490509033203 207.89453125 L 204.9355926513672 208.86167907714844 L 204.40301513671875 209.81866455078125 L 203.85235595703125 210.76522827148438 L 203.2846221923828 211.7011260986328 L 202.70082092285156 212.6261444091797 L 202.1020050048828 213.5399932861328 L 201.53799438476562 214.37246704101562 L 200.9624786376953 215.1958770751953 L 200.37559509277344 216.01026916503906 L 199.77755737304688 216.8156280517578 L 199.1685333251953 217.6120147705078 L 198.54867553710938 218.3994140625 L 197.91819763183594 219.17787170410156 L 197.2772674560547 219.9473876953125 L 196.6260528564453 220.70799255371094 L 195.96475219726562 221.45970153808594 L 195.29351806640625 222.20254516601562 L 194.612548828125 222.93653869628906 L 193.92201232910156 223.6616973876953 L 193.2220916748047 224.37803649902344 L 192.51296997070312 225.08560180664062 L 191.79481506347656 225.7843780517578 L 191.06781005859375 226.4744110107422 L 190.33213806152344 227.15570068359375 L 189.58798217773438 227.8282928466797 L 188.83551025390625 228.4921875 L 188.07489013671875 229.14739990234375 L 187.3063201904297 229.79397583007812 L 186.52996826171875 230.43191528320312 L 185.74603271484375 231.0612335205078 L 184.9546661376953 231.68197631835938 L 184.1560516357422 232.2941436767578 L 183.35037231445312 232.8977508544922 L 182.53781127929688 233.49282836914062 L 181.7185516357422 234.0793914794922 L 180.8927459716797 234.657470703125 L 180.06060791015625 235.22708129882812 L 179.2222900390625 235.78822326660156 L 178.3779754638672 236.3409423828125 L 177.52784729003906 236.88525390625 L 176.67208862304688 237.42117309570312 L 175.8108673095703 237.94873046875 L 174.94436645507812 238.46792602539062 L 174.07276916503906 238.97879028320312 L 173.1962432861328 239.48133850097656 L 172.3149871826172 239.97560119628906 L 171.4291534423828 240.4615936279297 L 170.53892517089844 240.9393310546875 L 169.64450073242188 241.40884399414062 L 168.7460479736328 241.87014770507812 L 167.84373474121094 242.3232421875 L 166.93775939941406 242.7681884765625 L 166.0282745361328 243.20497131347656 L 165.11549377441406 243.6336212158203 L 164.19955444335938 244.05416870117188 L 163.28067016601562 244.46661376953125 L 162.35899353027344 244.87100219726562 L 161.40872192382812 245.27859497070312 L 160.45437622070312 245.67819213867188 L 159.4960479736328 246.06944274902344 L 158.5338134765625 246.451904296875 L 157.56776428222656 246.82521057128906 L 156.5979461669922 247.18894958496094 L 155.6244659423828 247.542724609375 L 154.6473846435547 247.88613891601562 L 153.66677856445312 248.21881103515625 L 152.6827392578125 248.5403289794922 L 151.69532775878906 248.85031127929688 L 150.70465087890625 249.14834594726562 L 149.71075439453125 249.4340362548828 L 148.71372985839844 249.7069854736328 L 147.71365356445312 249.96681213378906 L 146.71060180664062 250.21310424804688 L 145.70465087890625 250.44546508789062 L 144.69589233398438 250.66351318359375 L 143.68438720703125 250.86685180664062 L 142.6702117919922 251.0550537109375 L 141.65345764160156 251.22775268554688 L 140.6342010498047 251.38455200195312 L 139.6125030517578 251.52503967285156 L 138.58847045898438 251.64881896972656 L 137.56214904785156 251.75550842285156 L 136.53363037109375 251.84469604492188 L 135.5030059814453 251.91600036621094 L 134.43032836914062 251.97042846679688 L 133.35682678222656 252.00489807128906 L 132.2828826904297 252.01943969726562 L 131.20883178710938 252.0141143798828 L 130.1350555419922 251.9889678955078 L 129.06192016601562 251.9440460205078 L 127.98977661132812 251.87940979003906 L 126.91899108886719 251.7950897216797 L 125.84993743896484 251.69113159179688 L 124.78296661376953 251.56759643554688 L 123.71844482421875 251.42453002929688 L 122.65673828125 251.26197814941406 L 121.59820556640625 251.07997131347656 L 120.54322052001953 250.8785858154297 L 119.49214172363281 250.65786743164062 L 118.44532775878906 250.4178466796875 L 117.40314483642578 250.15858459472656 L 116.36595916748047 249.88011169433594 L 115.3341293334961 249.58248901367188 L 114.30802154541016 249.26577758789062 L 113.28800201416016 248.92999267578125 L 112.3047103881836 248.58607482910156 L 111.32832336425781 248.22494506835938 L 110.35888671875 247.84690856933594 L 109.396484375 247.45228576660156 L 108.4411849975586 247.0413818359375 L 107.49304962158203 246.61447143554688 L 106.5521469116211 246.17190551757812 L 105.6185531616211 245.7139434814453 L 104.69233703613281 245.2409210205078 L 103.7735595703125 244.7531280517578 L 102.86228942871094 244.25086975097656 L 101.95860290527344 243.7344512939453 L 101.06256103515625 243.2041778564453 L 100.17424011230469 242.6603546142578 L 99.293701171875 242.10328674316406 L 98.4210205078125 241.53326416015625 L 97.55625915527344 240.95062255859375 L 96.69949340820312 240.3556365966797 L 95.85078430175781 239.74862670898438 L 95.01020812988281 239.12989807128906 L 94.17782592773438 238.49974060058594 L 93.35371398925781 237.85845947265625 L 92.53793334960938 237.2063751220703 L 91.73055267333984 236.54379272460938 L 90.93165588378906 235.87098693847656 L 90.14128875732422 235.18829345703125 L 89.35953521728516 234.4960174560547 L 88.58646392822266 233.79443359375 L 87.82213592529297 233.0838623046875 L 87.0666275024414 232.3646240234375 L 86.31999969482422 231.63699340820312 L 85.5688705444336 230.88719177246094 L 84.82626342773438 230.12791442871094 L 84.09259033203125 229.35922241210938 L 83.36827850341797 228.5811309814453 L 82.65373229980469 227.79371643066406 L 81.94937133789062 226.99697875976562 L 81.25560760498047 226.1909637451172 L 80.57286834716797 225.375732421875 L 79.90156555175781 224.55130004882812 L 79.24211120605469 223.7176971435547 L 78.59491729736328 222.87498474121094 L 77.96041870117188 222.023193359375 L 77.3390121459961 221.162353515625 L 76.73112487792969 220.29249572753906 L 76.13716888427734 219.41368103027344 L 75.55756378173828 218.52593994140625 L 74.99272155761719 217.62928771972656 L 74.44306182861328 216.72378540039062 L 73.90899658203125 215.80947875976562 L 73.39094543457031 214.88636779785156 L 72.88932800292969 213.95452880859375 L 72.40455627441406 213.01397705078125 L 71.93704223632812 212.0647735595703 L 71.48721313476562 211.10691833496094 L 71.05547332763672 210.14048767089844 L 70.64225006103516 209.16549682617188 L 70.24795532226562 208.18199157714844 L 69.87300109863281 207.19000244140625 L 69.5418701171875 206.25941467285156 L 69.2290267944336 205.32443237304688 L 68.93431854248047 204.38523864746094 L 68.65760040283203 203.44204711914062 L 68.39871215820312 202.49502563476562 L 68.15752410888672 201.54440307617188 L 67.93386840820312 200.59034729003906 L 67.72760772705078 199.63307189941406 L 67.53858947753906 198.67274475097656 L 67.36666870117188 197.7095947265625 L 67.21168518066406 196.74378967285156 L 67.07350158691406 195.77554321289062 L 66.95195770263672 194.80503845214844 L 66.84691619873047 193.8324737548828 L 66.75822448730469 192.85804748535156 L 66.68572998046875 191.88194274902344 L 66.62928771972656 190.9043731689453 L 66.5887451171875 189.92552185058594 L 66.56395721435547 188.94557189941406 L 66.55477142333984 187.96475219726562 L 66.56104278564453 186.9832305908203 L 66.5826187133789 186.00120544433594 L 66.61934661865234 185.0188751220703 L 66.67108917236328 184.03643798828125 L 66.73768615722656 183.0540771484375 L 66.8189926147461 182.07200622558594 L 66.91485595703125 181.09039306640625 L 67.02513885498047 180.10946655273438 L 67.1496810913086 179.12939453125 L 67.288330078125 178.150390625 L 67.44094848632812 177.17263793945312 L 67.60738372802734 176.1963348388672 L 67.78749084472656 175.22166442871094 L 67.98110961914062 174.24884033203125 L 68.18809509277344 173.27806091308594 L 68.4083023071289 172.3094940185547 L 68.6415786743164 171.34335327148438 L 68.88777923583984 170.3798370361328 L 69.1467514038086 169.41912841796875 L 69.41835021972656 168.46144104003906 L 69.7024154663086 167.50694274902344 L 69.99881744384766 166.55584716796875 L 70.30738830566406 165.60833740234375 L 70.62799072265625 164.6646270751953 L 70.96046447753906 163.7248992919922 L 71.30467224121094 162.78933715820312 L 71.66046905517578 161.858154296875 L 72.0276870727539 160.93154907226562 L 72.40618896484375 160.0096893310547 L 72.79582977294922 159.09280395507812 L 73.19644927978516 158.18106079101562 L 73.60791015625 157.274658203125 L 74.0300521850586 156.37380981445312 L 74.46273803710938 155.47869873046875 L 74.90580749511719 154.58950805664062 L 75.35911560058594 153.70645141601562 L 75.82251739501953 152.82972717285156 L 76.29586029052734 151.95950317382812 L 76.77899932861328 151.0959930419922 L 77.28591918945312 150.21913146972656 L 77.80758666992188 149.34925842285156 L 78.34383392333984 148.48681640625 L 78.89452362060547 147.6322479248047 L 79.45948791503906 146.78602600097656 L 80.03858947753906 145.94859313964844 L 80.63166046142578 145.12039184570312 L 81.23855590820312 144.30186462402344 L 81.85912322998047 143.49346923828125 L 82.49320220947266 142.69564819335938 L 83.1406478881836 141.9088592529297 L 83.80130004882812 141.13352966308594 L 84.47501373291016 140.37013244628906 L 85.16162872314453 139.61911010742188 L 85.86099243164062 138.8809051513672 L 86.57295989990234 138.1559600830078 L 87.29736328125 137.4447479248047 L 88.03406524658203 136.74769592285156 L 88.78289794921875 136.06524658203125 L 89.5437240600586 135.3978729248047 L 90.31637573242188 134.74600219726562 L 91.1007080078125 134.11009216308594 L 91.89656066894531 133.49058532714844 L 92.70379638671875 132.887939453125 L 93.5222396850586 132.30259704589844 L 94.35175323486328 131.73501586914062 L 95.19218444824219 131.1856231689453 L 96.04337310791016 130.65489196777344 L 96.90516662597656 130.14324951171875 L 97.77741241455078 129.65115356445312 L 98.65995788574219 129.17906188964844 L 99.55265045166016 128.7274169921875 L 100.4553451538086 128.29666137695312 L 101.36787414550781 127.88723754882812 L 102.29008483886719 127.4996109008789 L 103.22183990478516 127.13422393798828 L 104.16297149658203 126.79151916503906 L 105.11333465576172 126.47195434570312 L 106.07276916503906 126.17596435546875 L 107.04113006591797 125.90401458740234 L 108.01825714111328 125.65653991699219 L 109.00399780273438 125.43399810791016 Z" fill="none" stroke="black" stroke-width="2" /><path d="M 140.84300231933594 11.85200023651123 L 141.4567413330078 12.436166763305664 L 142.0948028564453 13.014558792114258 L 142.75631713867188 13.587333679199219 L 143.44049072265625 14.154646873474121 L 144.146484375 14.716653823852539 L 144.87344360351562 15.27351188659668 L 145.62057495117188 15.8253755569458 L 146.38702392578125 16.37240219116211 L 147.17196655273438 16.91474723815918 L 147.97457885742188 17.452566146850586 L 148.7940216064453 17.98601722717285 L 149.62945556640625 18.5152530670166 L 150.48007202148438 19.04043197631836 L 151.34503173828125 19.561710357666016 L 152.2235107421875 20.079240798950195 L 153.1146697998047 20.593183517456055 L 154.01766967773438 21.10369300842285 L 154.93170166015625 21.610925674438477 L 155.85592651367188 22.11503791809082 L 156.7895050048828 22.616182327270508 L 157.73162841796875 23.114519119262695 L 158.6814422607422 23.61020278930664 L 159.63812255859375 24.103389739990234 L 160.60086059570312 24.594234466552734 L 161.56878662109375 25.08289337158203 L 162.54110717773438 25.56952476501465 L 163.51698303222656 26.054283142089844 L 164.49557495117188 26.537324905395508 L 165.47604370117188 27.0188045501709 L 166.45758056640625 27.49888038635254 L 167.43936157226562 27.977706909179688 L 168.42051696777344 28.455440521240234 L 169.40025329589844 28.93223762512207 L 170.3777313232422 29.408252716064453 L 171.35211181640625 29.883644104003906 L 172.32257080078125 30.358566284179688 L 173.2882843017578 30.833175659179688 L 174.2484130859375 31.30763053894043 L 175.20211791992188 31.782081604003906 L 176.14859008789062 32.256690979003906 L 177.0869903564453 32.73160934448242 L 178.0164794921875 33.20699691772461 L 178.93624877929688 33.683006286621094 L 179.84544372558594 34.15979766845703 L 180.74325561523438 34.63752365112305 L 181.6288299560547 35.11634063720703 L 182.50135803222656 35.596405029296875 L 183.36000061035156 36.07787322998047 L 184.2039337158203 36.5609016418457 L 185.03231811523438 37.04564666748047 L 185.8443145751953 37.53226089477539 L 186.63912963867188 38.020904541015625 L 187.4158935546875 38.5117301940918 L 188.17379760742188 39.00489807128906 L 188.91200256347656 39.50056076049805 L 189.62966918945312 39.998878479003906 L 190.3260040283203 40.5 L 191.11180114746094 39.61884689331055 L 191.88150024414062 38.748104095458984 L 192.63583374023438 37.88750076293945 L 193.37551879882812 37.036773681640625 L 194.101318359375 36.195655822753906 L 194.81398010253906 35.363887786865234 L 195.5142364501953 34.54119873046875 L 196.20281982421875 33.72732162475586 L 196.8804931640625 32.9219970703125 L 197.5479736328125 32.12495422363281 L 198.2060089111328 31.335927963256836 L 198.8553466796875 30.554655075073242 L 199.49673461914062 29.78087043762207 L 200.1309051513672 29.014307022094727 L 200.7585906982422 28.254701614379883 L 201.3805389404297 27.501785278320312 L 201.9975128173828 26.755294799804688 L 202.6102294921875 26.014963150024414 L 203.21942138671875 25.280527114868164 L 203.8258514404297 24.551719665527344 L 204.43026733398438 23.82827377319336 L 205.03338623046875 23.109928131103516 L 205.63595581054688 22.396413803100586 L 206.2387237548828 21.687467575073242 L 206.84243774414062 20.98282241821289 L 207.44781494140625 20.28221321105957 L 208.0556182861328 19.58537483215332 L 208.66659545898438 18.89204216003418 L 209.28146362304688 18.201948165893555 L 209.90098571777344 17.514827728271484 L 210.52587890625 16.83041763305664 L 211.1569061279297 16.14845085144043 L 211.7947998046875 15.468660354614258 L 212.4403076171875 14.790782928466797 L 213.0941619873047 14.11455249786377 L 213.75711059570312 13.439703941345215 L 214.4298858642578 12.765970230102539 L 215.11325073242188 12.093088150024414 L 215.80792236328125 11.42078971862793 L 216.5146484375 10.748811721801758 L 217.2341766357422 10.076887130737305 L 217.9672393798828 9.404751777648926 L 218.71458435058594 8.732139587402344 L 219.47695922851562 8.058784484863281 L 220.25509643554688 7.384421348571777 L 221.04974365234375 6.708785057067871 L 221.8616180419922 6.031610012054443 L 222.69149780273438 5.352631092071533 L 223.54010009765625 4.671582221984863 L 224.40817260742188 3.9881980419158936 L 225.2964630126953 3.302213191986084 L 226.20570373535156 2.6133620738983154 L 227.13662719726562 1.9213796854019165 L 228.08999633789062 1.2259999513626099 L 228.02581787109375 2.3799943923950195 L 227.95462036132812 3.5166447162628174 L 227.8763427734375 4.6365556716918945 L 227.79098510742188 5.740332126617432 L 227.69850158691406 6.828578948974609 L 227.59884643554688 7.901900291442871 L 227.4919891357422 8.960901260375977 L 227.37791442871094 10.006187438964844 L 227.25656127929688 11.038361549377441 L 227.12791442871094 12.058030128479004 L 226.99192810058594 13.065796852111816 L 226.84857177734375 14.062267303466797 L 226.6977996826172 15.048046112060547 L 226.5395965576172 16.02373695373535 L 226.37393188476562 16.989944458007812 L 226.20074462890625 17.947275161743164 L 226.02001953125 18.896333694458008 L 225.83172607421875 19.837722778320312 L 225.63580322265625 20.77204704284668 L 225.4322509765625 21.699914932250977 L 225.22100830078125 22.62192726135254 L 225.00205993652344 23.5386905670166 L 224.77536010742188 24.450807571411133 L 224.54086303710938 25.35888671875 L 224.29856872558594 26.26352882385254 L 224.0484161376953 27.165340423583984 L 223.7903594970703 28.06492805480957 L 223.52439880371094 28.962892532348633 L 223.25047302246094 29.85984230041504 L 222.96856689453125 30.756380081176758 L 222.6786346435547 31.65311050415039 L 222.38063049316406 32.55064010620117 L 222.0745391845703 33.44956970214844 L 221.7603302001953 34.35050582885742 L 221.4379425048828 35.254058837890625 L 221.1073760986328 36.160823822021484 L 220.7685546875 37.0714111328125 L 220.42147827148438 37.986427307128906 L 220.0661163330078 38.906471252441406 L 219.702392578125 39.8321533203125 L 219.330322265625 40.764076232910156 L 218.9498291015625 41.702842712402344 L 218.5609130859375 42.6490592956543 L 218.16351318359375 43.603328704833984 L 217.7576141357422 44.56625747680664 L 217.34317016601562 45.5384521484375 L 216.92015075683594 46.52051544189453 L 216.488525390625 47.5130500793457 L 216.04824829101562 48.516666412353516 L 215.5992889404297 49.53196334838867 L 215.14161682128906 50.559547424316406 L 214.67520141601562 51.60002517700195 L 214.1999969482422 52.65399932861328 L 215.13540649414062 52.88987350463867 L 216.06954956054688 53.14322280883789 L 217.00247192382812 53.41334533691406 L 217.93421936035156 53.69954299926758 L 218.8648681640625 54.001121520996094 L 219.79443359375 54.31737518310547 L 220.72300720214844 54.64760971069336 L 221.6505889892578 54.99112319946289 L 222.5772705078125 55.34722137451172 L 223.5030975341797 55.7151985168457 L 224.4281005859375 56.0943603515625 L 225.3523406982422 56.484004974365234 L 226.27587890625 56.88343811035156 L 227.19874572753906 57.291954040527344 L 228.12100219726562 57.7088623046875 L 229.04270935058594 58.13345718383789 L 229.96389770507812 58.565040588378906 L 230.88462829589844 59.00291442871094 L 231.80494689941406 59.446380615234375 L 232.72491455078125 59.89474105834961 L 233.64456176757812 60.347293853759766 L 234.56396484375 60.803340911865234 L 235.483154296875 61.262184143066406 L 236.40219116210938 61.72312545776367 L 237.3211212158203 62.185462951660156 L 238.24000549316406 62.64849853515625 L 239.15887451171875 63.11153793334961 L 240.07778930664062 63.573875427246094 L 240.99681091308594 64.0348129272461 L 241.9159698486328 64.49365997314453 L 242.8353271484375 64.94970703125 L 243.7549285888672 65.40225982666016 L 244.67483520507812 65.85061645507812 L 245.5950927734375 66.29408264160156 L 246.5157470703125 66.73196411132812 L 247.43685913085938 67.16354370117188 L 248.35845947265625 67.58814239501953 L 249.28060913085938 68.00504302978516 L 250.203369140625 68.41355895996094 L 251.1267852783203 68.81299591064453 L 252.0509033203125 69.20263671875 L 252.97576904296875 69.58180236816406 L 253.9014434814453 69.94978332519531 L 254.82797241210938 70.30587768554688 L 255.75540161132812 70.6493911743164 L 256.68377685546875 70.97962188720703 L 257.6131896972656 71.2958755493164 L 258.54364013671875 71.59745788574219 L 259.4751892089844 71.88365173339844 L 260.40789794921875 72.15377807617188 L 261.3418273925781 72.4071273803711 L 262.2770080566406 72.64299774169922 L 261.4667663574219 73.25691986083984 L 260.64990234375 73.83895111083984 L 259.8265380859375 74.3899917602539 L 258.99676513671875 74.91091918945312 L 258.1607360839844 75.40263366699219 L 257.3185119628906 75.86602020263672 L 256.4702453613281 76.3019790649414 L 255.6160430908203 76.71138763427734 L 254.7560272216797 77.09515380859375 L 253.89028930664062 77.45414733886719 L 253.01895141601562 77.78927612304688 L 252.1421356201172 78.1014175415039 L 251.25994873046875 78.39147186279297 L 250.37249755859375 78.66033172607422 L 249.47991943359375 78.90887451171875 L 248.58229064941406 79.13800048828125 L 247.6797637939453 79.34860229492188 L 246.77243041992188 79.54156494140625 L 245.8603973388672 79.71778869628906 L 244.9438018798828 79.8781509399414 L 244.0227508544922 80.02354431152344 L 243.09735107421875 80.15486907958984 L 242.16770935058594 80.27301025390625 L 241.23394775390625 80.37885284423828 L 240.2961883544922 80.47329711914062 L 239.3545379638672 80.5572280883789 L 238.4091033935547 80.63154602050781 L 237.4600067138672 80.69712829589844 L 236.50735473632812 80.75486755371094 L 235.55126953125 80.80565643310547 L 234.59185791015625 80.85039520263672 L 233.6292266845703 80.88996124267578 L 232.66351318359375 80.92525482177734 L 231.69482421875 80.9571533203125 L 230.72325134277344 80.98656463623047 L 229.74893188476562 81.01436614990234 L 228.77195739746094 81.04145812988281 L 227.79246520996094 81.0687255859375 L 226.81056213378906 81.09705352783203 L 225.82635498046875 81.1273422241211 L 224.8399658203125 81.16048431396484 L 223.85150146484375 81.19735717773438 L 222.86106872558594 81.2388687133789 L 221.86880493164062 81.28589630126953 L 220.8748016357422 81.3393325805664 L 219.87918090820312 81.40007019042969 L 218.88206481933594 81.46900177001953 L 217.883544921875 81.5470199584961 L 216.8837432861328 81.63500213623047 L 215.88279724121094 81.73385620117188 L 214.8807830810547 81.84446716308594 L 213.8778533935547 81.96772003173828 L 212.87408447265625 82.10450744628906 L 211.86961364746094 82.25572204589844 L 210.8645477294922 82.42225646972656 L 209.85899353027344 82.6050033569336 L 209.67398071289062 83.44647979736328 L 209.4915008544922 84.3060302734375 L 209.3116455078125 85.18297576904297 L 209.13446044921875 86.07667541503906 L 208.9600372314453 86.98646545410156 L 208.78842163085938 87.91169738769531 L 208.6197052001953 88.85169982910156 L 208.4539337158203 89.80582427978516 L 208.29119873046875 90.77342224121094 L 208.1315460205078 91.75382232666016 L 207.97506713867188 92.74636840820312 L 207.82180786132812 93.75041198730469 L 207.67185974121094 94.76529693603516 L 207.5252685546875 95.79035949707031 L 207.38211059570312 96.82494354248047 L 207.24246215820312 97.86840057373047 L 207.1063995361328 98.92005920410156 L 206.97396850585938 99.97927856445312 L 206.84524536132812 101.04539489746094 L 206.72030639648438 102.11774444580078 L 206.59922790527344 103.1956787109375 L 206.4820556640625 104.2785415649414 L 206.36886596679688 105.36567687988281 L 206.25973510742188 106.45641326904297 L 206.15472412109375 107.55011749267578 L 206.0539093017578 108.64611053466797 L 205.9573516845703 109.7437515258789 L 205.86512756347656 110.84237670898438 L 205.7772979736328 111.94132995605469 L 205.6939239501953 113.03994750976562 L 205.61509704589844 114.13758850097656 L 205.54087829589844 115.23358154296875 L 205.47132873535156 116.32727813720703 L 205.40650939941406 117.41802215576172 L 205.3465118408203 118.5051498413086 L 205.2913818359375 119.58800506591797 L 205.2412109375 120.66593170166016 L 205.196044921875 121.73828125 L 205.1559600830078 122.80438995361328 L 205.1210479736328 123.86360168457031 L 205.09133911132812 124.9152603149414 L 205.06692504882812 125.95870208740234 L 205.04786682128906 126.99327850341797 L 205.03424072265625 128.01834106445312 L 205.02610778808594 129.033203125 L 205.02352905273438 130.03724670410156 L 205.02659606933594 131.02978515625 L 205.03536987304688 132.0101776123047 L 205.04991149902344 132.97775268554688 L 205.07028198242188 133.93186950683594 L 205.0965576171875 134.87185668945312 L 205.1288299560547 135.7970733642578 L 205.16712951660156 136.70684814453125 L 205.2115478515625 137.6005401611328 L 205.26214599609375 138.47747802734375 L 205.31900024414062 139.33700561523438 L 204.78237915039062 138.60060119628906 L 204.24366760253906 137.85195922851562 L 203.70318603515625 137.09140014648438 L 203.16127014160156 136.31927490234375 L 202.61822509765625 135.53591918945312 L 202.07437133789062 134.74168395996094 L 201.53004455566406 133.93692016601562 L 200.9855499267578 133.12193298339844 L 200.4412078857422 132.29710388183594 L 199.89735412597656 131.46275329589844 L 199.35427856445312 130.61923217773438 L 198.8123321533203 129.76687622070312 L 198.27183532714844 128.90603637695312 L 197.7330780029297 128.03704833984375 L 197.1964111328125 127.16024017333984 L 196.66213989257812 126.2759780883789 L 196.13058471679688 125.38459014892578 L 195.60208129882812 124.48641967773438 L 195.07691955566406 123.58181762695312 L 194.55545043945312 122.67111206054688 L 194.03799438476562 121.75464630126953 L 193.52484130859375 120.83277893066406 L 193.01634216308594 119.90583038330078 L 192.51280212402344 118.97415161132812 L 192.01454162597656 118.03809356689453 L 191.5218963623047 117.09798431396484 L 191.03515625 116.15416717529297 L 190.55467224121094 115.20699310302734 L 190.08074951171875 114.25679779052734 L 189.6137237548828 113.30392456054688 L 189.1538848876953 112.34870910644531 L 188.7015838623047 111.3915023803711 L 188.2571258544922 110.4326400756836 L 187.82083129882812 109.47247314453125 L 187.39303588867188 108.51133728027344 L 186.97402954101562 107.54956817626953 L 186.5641632080078 106.58751678466797 L 186.1637420654297 105.62551879882812 L 185.77308654785156 104.6639175415039 L 185.39251708984375 103.70306396484375 L 185.02236938476562 102.7432861328125 L 184.66294860839844 101.7849349975586 L 184.3145751953125 100.82835388183594 L 183.97756958007812 99.87387084960938 L 183.65225219726562 98.92184448242188 L 183.3389434814453 97.97260284423828 L 183.03797912597656 97.02650451660156 L 182.74966430664062 96.08386993408203 L 182.4743194580078 95.14505767822266 L 182.21226501464844 94.21041107177734 L 181.9638214111328 93.28025817871094 L 181.72930908203125 92.35494232177734 L 181.50906372070312 91.43482208251953 L 181.3033905029297 90.52021789550781 L 181.1125946044922 89.61148834228516 L 180.93702697753906 88.70896911621094 L 180.77699279785156 87.81300354003906 L 179.69700622558594 87.75601196289062 L 178.62571716308594 87.71502685546875 L 177.5628204345703 87.6897201538086 L 176.50804138183594 87.67973327636719 L 175.46104431152344 87.68473052978516 L 174.42153930664062 87.7043685913086 L 173.3892364501953 87.73831176757812 L 172.3638153076172 87.78620147705078 L 171.34498596191406 87.84770965576172 L 170.3324432373047 87.92249298095703 L 169.3258819580078 88.01020050048828 L 168.32501220703125 88.11048889160156 L 167.32952880859375 88.22303009033203 L 166.339111328125 88.34746551513672 L 165.35348510742188 88.48345947265625 L 164.372314453125 88.63066864013672 L 163.3953399658203 88.78875732421875 L 162.42222595214844 88.95736694335938 L 161.4526824951172 89.13616943359375 L 160.4864044189453 89.32482147216797 L 159.52310180664062 89.5229721069336 L 158.5624542236328 89.73027801513672 L 157.6041717529297 89.9464111328125 L 156.64794921875 90.17101287841797 L 155.6934814453125 90.40374755859375 L 154.740478515625 90.64427947998047 L 153.7886199951172 90.89225006103516 L 152.83763122558594 91.14733123779297 L 151.88717651367188 91.40917205810547 L 150.93698120117188 91.67742919921875 L 149.98672485351562 91.95176696777344 L 149.03611755371094 92.23184204101562 L 148.08485412597656 92.51730346679688 L 147.1326446533203 92.80782318115234 L 146.1791534423828 93.10304260253906 L 145.22410583496094 93.40262603759766 L 144.26719665527344 93.70623779296875 L 143.30812072753906 94.0135269165039 L 142.34658813476562 94.32415008544922 L 141.3822784423828 94.63777160644531 L 140.41488647460938 94.95404052734375 L 139.4441375732422 95.27262115478516 L 138.46969604492188 95.5931625366211 L 137.4912872314453 95.91533660888672 L 136.5085906982422 96.23878479003906 L 135.52133178710938 96.56317901611328 L 134.5291748046875 96.88816833496094 L 133.53182983398438 97.21340942382812 L 132.5290069580078 97.53855895996094 L 131.5203857421875 97.86328125 L 130.50567626953125 98.18722534179688 L 129.48458862304688 98.51005554199219 L 128.456787109375 98.83142852783203 L 127.4219970703125 99.1510009765625 L 127.98159790039062 98.28768157958984 L 128.5501708984375 97.43028259277344 L 129.12767028808594 96.5788803100586 L 129.71400451660156 95.7335433959961 L 130.30909729003906 94.89436340332031 L 130.91285705566406 94.06141662597656 L 131.52525329589844 93.23477935791016 L 132.1461639404297 92.4145278930664 L 132.77552795410156 91.60073852539062 L 133.4132843017578 90.79350280761719 L 134.05934143066406 89.99288177490234 L 134.713623046875 89.19895935058594 L 135.3760528564453 88.41181945800781 L 136.04656982421875 87.63153839111328 L 136.72508239746094 86.85819244384766 L 137.41151428222656 86.09186553955078 L 138.10580444335938 85.33262634277344 L 138.807861328125 84.58055877685547 L 139.5176239013672 83.83573913574219 L 140.23500061035156 83.09825134277344 L 140.9599151611328 82.3681640625 L 141.6923065185547 81.64556884765625 L 142.43209838867188 80.93053436279297 L 143.17919921875 80.22313690185547 L 143.9335479736328 79.5234603881836 L 144.69505310058594 78.83158111572266 L 145.46365356445312 78.1475830078125 L 146.2392578125 77.4715347290039 L 147.0218048095703 76.80352783203125 L 147.81121826171875 76.14362335205078 L 148.607421875 75.49191284179688 L 149.4103240966797 74.84847259521484 L 150.21986389160156 74.21337890625 L 151.03594970703125 73.58670806884766 L 151.85853576660156 72.96853637695312 L 152.68751525878906 72.35895538330078 L 153.52284240722656 71.75802612304688 L 154.36441040039062 71.16584014892578 L 155.212158203125 70.58247375488281 L 156.0659942626953 70.00800323486328 L 157.6063690185547 68.84425354003906 L 158.5970001220703 67.28600311279297 L 158.8398895263672 66.92093658447266 L 159.40777587890625 66.2847671508789 L 160.2263946533203 65.43770599365234 L 161.22145080566406 64.43993377685547 L 162.31866455078125 63.35165023803711 L 163.4437713623047 62.2330436706543 L 164.52249145507812 61.14431381225586 L 165.48056030273438 60.14564895629883 L 166.24368286132812 59.297245025634766 L 166.73757934570312 58.659297943115234 L 166.88800048828125 58.29199981689453 L 166.64752197265625 57.22658920288086 L 166.3866729736328 56.187313079833984 L 166.10610961914062 55.17323303222656 L 165.80654907226562 54.183414459228516 L 165.48867797851562 53.216915130615234 L 165.15318298339844 52.27280044555664 L 164.80076599121094 51.35013198852539 L 164.4320831298828 50.447975158691406 L 164.04786682128906 49.56538772583008 L 163.64877319335938 48.701438903808594 L 163.2355194091797 47.855186462402344 L 162.80877685546875 47.02569580078125 L 162.36924743652344 46.21202850341797 L 161.9176025390625 45.413246154785156 L 161.45455932617188 44.62841033935547 L 160.98080444335938 43.856590270996094 L 160.4969940185547 43.096839904785156 L 160.0038604736328 42.348228454589844 L 159.5020751953125 41.60981369018555 L 158.99232482910156 40.88066482543945 L 158.47531127929688 40.15983581542969 L 157.9517059326172 39.4463996887207 L 157.42222595214844 38.739410400390625 L 156.88754272460938 38.037933349609375 L 156.3483428955078 37.34103012084961 L 155.80532836914062 36.647769927978516 L 155.25918579101562 35.95720672607422 L 154.7106170654297 35.26840591430664 L 154.16029357910156 34.5804328918457 L 153.60890197753906 33.89234924316406 L 153.05714416503906 33.203216552734375 L 152.50572204589844 32.5120964050293 L 151.95530700683594 31.81805419921875 L 151.40660095214844 31.120149612426758 L 150.8602752685547 30.417449951171875 L 150.31704711914062 29.709012985229492 L 149.777587890625 28.99390411376953 L 149.2425994873047 28.27118492126465 L 148.71275329589844 27.539918899536133 L 148.18875122070312 26.79916763305664 L 147.67129516601562 26.047996520996094 L 147.16107177734375 25.285463333129883 L 146.65875244140625 24.510635375976562 L 146.1650390625 23.72257423400879 L 145.6806182861328 22.920339584350586 L 145.20619201660156 22.102998733520508 L 144.742431640625 21.269611358642578 L 144.29005432128906 20.419239044189453 L 143.8497314453125 19.550947189331055 L 143.42214965820312 18.663799285888672 L 143.0080108642578 17.756855010986328 L 142.6079864501953 16.829177856445312 L 142.22279357910156 15.879831314086914 L 141.8531036376953 14.907876968383789 L 141.49961853027344 13.912379264831543 L 141.16302490234375 12.892398834228516 L 140.843994140625 11.847000122070312 Z" fill="none" stroke="black" stroke-width="2" /><path d="M 7.980000019073486 0.8399999737739563 L 8.989509582519531 0.8478833436965942 L 9.999008178710938 0.8568599820137024 L 11.00849437713623 0.8669298887252808 L 12.017967224121094 0.8780930042266846 L 13.027425765991211 0.8903491497039795 L 14.03686809539795 0.9036982655525208 L 15.046293258666992 0.9181402921676636 L 16.055702209472656 0.9336751103401184 L 17.06509017944336 0.9503026604652405 L 18.074459075927734 0.968022882938385 L 19.083805084228516 0.9868356585502625 L 20.093130111694336 1.0067408084869385 L 21.10243034362793 1.0277384519577026 L 22.111705780029297 1.049828290939331 L 23.120956420898438 1.0730103254318237 L 24.130178451538086 1.0972845554351807 L 25.139373779296875 1.1226507425308228 L 26.14853858947754 1.14910888671875 L 27.157672882080078 1.1766588687896729 L 28.16677474975586 1.2053006887435913 L 29.175846099853516 1.2350341081619263 L 30.18488121032715 1.2658591270446777 L 31.19388198852539 1.2977756261825562 L 32.20284652709961 1.330783486366272 L 33.21177291870117 1.3648828268051147 L 34.22066116333008 1.4000732898712158 L 35.22951126098633 1.4363549947738647 L 36.238319396972656 1.4737277030944824 L 37.24708557128906 1.5121912956237793 L 38.25580978393555 1.551745891571045 L 39.264488220214844 1.5923912525177002 L 40.27312088012695 1.6341273784637451 L 41.281707763671875 1.6769541501998901 L 42.29024887084961 1.7208713293075562 L 43.29874038696289 1.7658790349960327 L 44.30717849731445 1.8119771480560303 L 45.31557083129883 1.8591655492782593 L 46.32390594482422 1.9074440002441406 L 47.332191467285156 1.9568127393722534 L 48.34041976928711 2.0072712898254395 L 49.348594665527344 2.0588200092315674 L 50.356712341308594 2.1114583015441895 L 51.364768981933594 2.165186643600464 L 52.37276840209961 2.2200043201446533 L 53.38071060180664 2.275911808013916 L 54.388587951660156 2.332908868789673 L 55.39640426635742 2.3909950256347656 L 56.40415573120117 2.4501707553863525 L 57.411842346191406 2.5104355812072754 L 58.419464111328125 2.571789503097534 L 59.42701721191406 2.634232759475708 L 60.434505462646484 2.6977646350860596 L 61.44192123413086 2.762385606765747 L 62.44926834106445 2.8280951976776123 L 63.45654296875 2.8948936462402344 L 64.4637451171875 2.962780714035034 L 65.47087097167969 3.0317564010620117 L 66.4779281616211 3.101820230484009 L 67.48490142822266 3.1729726791381836 L 68.4917984008789 3.245213270187378 L 69.49861907958984 3.318542003631592 L 70.50536346435547 3.3929591178894043 L 71.51202392578125 3.468463897705078 L 72.51860046386719 3.5450568199157715 L 73.52510070800781 3.622737407684326 L 74.53150939941406 3.7015058994293213 L 75.53783416748047 3.7813618183135986 L 76.54407501220703 3.8623054027557373 L 77.55022430419922 3.9443366527557373 L 78.55628967285156 4.0274553298950195 L 79.56226348876953 4.111660957336426 L 80.56814575195312 4.196953773498535 L 81.57393646240234 4.283334255218506 L 82.57963562011719 4.3708014488220215 L 83.58523559570312 4.459355354309082 L 84.59074401855469 4.548996448516846 L 85.59615325927734 4.639724254608154 L 86.6014633178711 4.731538772583008 L 87.60667419433594 4.824440002441406 L 88.6117935180664 4.918427467346191 L 89.6167984008789 5.0135016441345215 L 90.62171173095703 5.109662055969238 L 91.62651824951172 5.206908702850342 L 92.63121795654297 5.305241584777832 L 93.63581085205078 5.404660701751709 L 94.64029693603516 5.5051655769348145 L 95.64468383789062 5.606756210327148 L 96.6489486694336 5.709433078765869 L 97.65310668945312 5.813195705413818 L 98.65715789794922 5.918043613433838 L 99.66109466552734 6.023977279663086 L 100.6649169921875 6.130996227264404 L 101.66862487792969 6.239100933074951 L 102.67221069335938 6.34829044342041 L 103.67568969726562 6.458565711975098 L 104.67903900146484 6.569925785064697 L 105.6822738647461 6.682370662689209 L 106.68539428710938 6.795900821685791 L 107.68838500976562 6.910515785217285 L 108.69125366210938 7.026215553283691 L 109.69400024414062 7.14300012588501 L 110.97899627685547 7.559999942779541 L 111.49099731445312 9.5649995803833 L 111.43617248535156 10.577742576599121 L 111.38134765625 11.590484619140625 L 111.3265151977539 12.603225708007812 L 111.27169036865234 13.615966796875 L 111.21686553955078 14.628706932067871 L 111.16204071044922 15.641447067260742 L 111.10721588134766 16.654186248779297 L 111.0523910522461 17.66692543029785 L 110.99756622314453 18.679662704467773 L 110.94274139404297 19.692399978637695 L 110.8879165649414 20.705135345458984 L 110.83309173583984 21.717872619628906 L 110.77827453613281 22.730607986450195 L 110.72344970703125 23.74334144592285 L 110.66862487792969 24.756074905395508 L 110.61380767822266 25.768808364868164 L 110.5589828491211 26.78154182434082 L 110.50416564941406 27.794273376464844 L 110.4493408203125 28.807004928588867 L 110.39452362060547 29.819734573364258 L 110.33970642089844 30.83246421813965 L 110.28488159179688 31.845191955566406 L 110.23006439208984 32.8579216003418 L 110.17524719238281 33.87064743041992 L 110.12042999267578 34.88337326049805 L 110.06561279296875 35.89609909057617 L 110.01079559326172 36.9088249206543 L 109.95597839355469 37.921546936035156 L 109.90116119384766 38.93427276611328 L 109.84634399414062 39.94699478149414 L 109.7915267944336 40.959716796875 L 109.73670959472656 41.972434997558594 L 109.68189239501953 42.98515701293945 L 109.6270751953125 43.99787521362305 L 109.57225799560547 45.01059341430664 L 109.51744079589844 46.02330780029297 L 109.46263122558594 47.03602600097656 L 109.4078140258789 48.04874038696289 L 109.35299682617188 49.06145477294922 L 109.29817962646484 50.07416915893555 L 109.24337005615234 51.08687973022461 L 109.18855285644531 52.09959030151367 L 109.13373565673828 53.112300872802734 L 109.07892608642578 54.1250114440918 L 109.02410888671875 55.13772201538086 L 108.96929168701172 56.150428771972656 L 108.91448211669922 57.16313552856445 L 108.85966491699219 58.175838470458984 L 108.80484771728516 59.18854522705078 L 108.75003814697266 60.20124816894531 L 108.69522094726562 61.21394729614258 L 108.6404037475586 62.22665023803711 L 108.5855941772461 63.239349365234375 L 108.53077697753906 64.2520523071289 L 108.47596740722656 65.2647476196289 L 108.42115020751953 66.2774429321289 L 108.3663330078125 67.2901382446289 L 108.3115234375 68.3028335571289 L 108.25670623779297 69.3155288696289 L 108.20188903808594 70.32821655273438 L 108.14707946777344 71.34091186523438 L 108.0922622680664 72.35359954833984 L 108.03744506835938 73.36628723144531 L 107.98263549804688 74.37897491455078 L 107.92781829833984 75.39166259765625 L 107.87300109863281 76.40435028076172 L 107.81818389892578 77.41703033447266 L 107.76337432861328 78.4297103881836 L 107.70855712890625 79.44239044189453 L 107.65373992919922 80.45507049560547 L 107.59892272949219 81.4677505493164 L 107.54410552978516 82.48043060302734 L 107.48929595947266 83.49310302734375 L 107.43447875976562 84.50578308105469 L 107.3796615600586 85.5184555053711 L 107.32484436035156 86.5311279296875 L 107.27002716064453 87.5438003540039 L 107.2152099609375 88.55646514892578 L 107.16039276123047 89.56913757324219 L 107.1055679321289 90.58180236816406 L 107.05075073242188 91.59446716308594 L 106.99593353271484 92.60713195800781 L 106.94111633300781 93.61979675292969 L 106.88629913330078 94.63245391845703 L 106.83147430419922 95.6451187133789 L 106.77665710449219 96.65777587890625 L 106.72183990478516 97.6704330444336 L 106.6670150756836 98.68309020996094 L 106.61219787597656 99.69573974609375 L 106.557373046875 100.7083969116211 L 106.50254821777344 101.7210464477539 L 106.4477310180664 102.73369598388672 L 106.39290618896484 103.74634552001953 L 106.33808135986328 104.75898742675781 L 106.28325653076172 105.77163696289062 L 106.22843933105469 106.7842788696289 L 106.17361450195312 107.79692077636719 L 106.11878967285156 108.80956268310547 L 106.06396484375 109.82219696044922 L 106.00914001464844 110.8348388671875 L 105.95430755615234 111.84747314453125 L 105.89948272705078 112.860107421875 L 105.84465789794922 113.87274169921875 L 105.78982543945312 114.88536834716797 L 105.73500061035156 115.89800262451172 L 105.54900360107422 117.4175033569336 L 104.87100219726562 118.71499633789062 L 102.44000244140625 119.60900115966797 L 101.4385986328125 119.74288177490234 L 100.43685913085938 119.87176513671875 L 99.43478393554688 119.99569702148438 L 98.43238830566406 120.11471557617188 L 97.42967224121094 120.2288589477539 L 96.42665100097656 120.33818054199219 L 95.42332458496094 120.44271850585938 L 94.4197006225586 120.54251098632812 L 93.4157943725586 120.6375961303711 L 92.41161346435547 120.72802734375 L 91.40715026855469 120.81383514404297 L 90.40243530273438 120.89507293701172 L 89.3974609375 120.97177124023438 L 88.3922348022461 121.04398345947266 L 87.38677215576172 121.11174011230469 L 86.3810806274414 121.17509460449219 L 85.37516021728516 121.23407745361328 L 84.3690185546875 121.28874206542969 L 83.36267852783203 121.33911895751953 L 82.35612487792969 121.38525390625 L 81.3493881225586 121.42720031738281 L 80.34246063232422 121.46498107910156 L 79.33535766601562 121.49864959716797 L 78.32807922363281 121.52824401855469 L 77.32064056396484 121.55381774902344 L 76.31304931640625 121.57539367675781 L 75.30530548095703 121.59302520751953 L 74.29742431640625 121.60675048828125 L 73.28941345214844 121.61662292480469 L 72.2812728881836 121.62266540527344 L 71.27302551269531 121.62493133544922 L 70.26466369628906 121.62345886230469 L 69.2562026977539 121.61829376220703 L 68.24764251708984 121.60948181152344 L 67.23899841308594 121.59705352783203 L 66.23028564453125 121.5810546875 L 65.22149658203125 121.56153106689453 L 64.21263885498047 121.53852844238281 L 63.2037353515625 121.51207733154297 L 62.19478225708008 121.48222351074219 L 61.185787200927734 121.44902038574219 L 60.17676544189453 121.41249084472656 L 59.16771697998047 121.37268829345703 L 58.158653259277344 121.32965850830078 L 57.14958190917969 121.28343200683594 L 56.140506744384766 121.23406219482422 L 55.13144302368164 121.18157958984375 L 54.12239074707031 121.12602996826172 L 53.113365173339844 121.06746673583984 L 52.104366302490234 121.00592041015625 L 51.09540557861328 120.9414291381836 L 50.08649444580078 120.8740463256836 L 49.077632904052734 120.80380249023438 L 48.06883239746094 120.73075103759766 L 47.06010437011719 120.6549301147461 L 46.051448822021484 120.57637786865234 L 45.04288101196289 120.49513244628906 L 44.03440475463867 120.41124725341797 L 43.02602767944336 120.32476043701172 L 42.017757415771484 120.23571014404297 L 41.00960159301758 120.1441421508789 L 40.00157165527344 120.05010223388672 L 38.99367141723633 119.95362091064453 L 37.98590850830078 119.85474395751953 L 36.978294372558594 119.7535171508789 L 35.97083282470703 119.64998626708984 L 34.963531494140625 119.54418182373047 L 33.956398010253906 119.43614959716797 L 32.94944763183594 119.32594299316406 L 31.942676544189453 119.21359252929688 L 30.936100006103516 119.09913635253906 L 29.929723739624023 118.98262786865234 L 28.923555374145508 118.86410522460938 L 27.9176025390625 118.74360656738281 L 26.911874771118164 118.62117767333984 L 25.906375885009766 118.49685668945312 L 24.9011173248291 118.37068939208984 L 23.89610481262207 118.24271392822266 L 22.891347885131836 118.11298370361328 L 21.886850357055664 117.98152160644531 L 20.882625579833984 117.848388671875 L 19.87867546081543 117.71360778808594 L 18.87501335144043 117.57723999023438 L 17.87164306640625 117.43931579589844 L 16.868572235107422 117.29988098144531 L 15.865811347961426 117.15897369384766 L 14.86336612701416 117.01663970947266 L 13.861244201660156 116.87291717529297 L 12.859454154968262 116.72785186767578 L 11.858003616333008 116.58148956298828 L 10.856900215148926 116.4338607788086 L 9.856151580810547 116.28501892089844 L 8.855765342712402 116.13500213623047 L 7.855749607086182 115.98384857177734 L 6.856111526489258 115.83159637451172 L 5.85685920715332 115.67830657958984 L 4.857999801635742 115.52400207519531 L 2.7920000553131104 114.7300033569336 L 2.0840001106262207 112.32499694824219 L 2.037950038909912 111.2432861328125 L 1.992763876914978 110.16156768798828 L 1.9483866691589355 109.07984924316406 L 1.9047638177871704 107.99812316894531 L 1.8618407249450684 106.9163818359375 L 1.8195626735687256 105.83463287353516 L 1.7778749465942383 104.75287628173828 L 1.7367230653762817 103.67109680175781 L 1.696052074432373 102.58930206298828 L 1.655807614326477 101.50749206542969 L 1.6159347295761108 100.4256591796875 L 1.5763790607452393 99.34379577636719 L 1.5370856523513794 98.26191711425781 L 1.4980000257492065 97.18000030517578 L 1.461316466331482 96.16380310058594 L 1.4246844053268433 95.14744567871094 L 1.3881473541259766 94.13093566894531 L 1.3517485857009888 93.1142807006836 L 1.3155317306518555 92.09748840332031 L 1.2795401811599731 91.08055877685547 L 1.2438174486160278 90.0634994506836 L 1.2084070444107056 89.04631805419922 L 1.1733523607254028 88.02902221679688 L 1.1386969089508057 87.0116195678711 L 1.1044842004776 85.99411010742188 L 1.070757508277893 84.97650146484375 L 1.0375605821609497 83.95880126953125 L 1.0049368143081665 82.9410171508789 L 0.9729295969009399 81.92315673828125 L 0.941582441329956 80.90522003173828 L 0.9109387993812561 79.88721466064453 L 0.8810421228408813 78.86914825439453 L 0.8519359827041626 77.85102844238281 L 0.8236637711524963 76.8328628540039 L 0.7962689995765686 75.81465148925781 L 0.7697951197624207 74.7964096069336 L 0.7442856431007385 73.77812957763672 L 0.7197839617729187 72.75982666015625 L 0.6963335871696472 71.74150848388672 L 0.6739779710769653 70.72317504882812 L 0.6527606844902039 69.70484161376953 L 0.6327250599861145 68.68650817871094 L 0.6139146685600281 67.66817474365234 L 0.5963729619979858 66.64985656738281 L 0.5801433324813843 65.63155364990234 L 0.565269410610199 64.61328125 L 0.5517945289611816 63.59503936767578 L 0.5397621989250183 62.57683181762695 L 0.529215931892395 61.55866622924805 L 0.5201991200447083 60.54055404663086 L 0.5127553343772888 59.52249526977539 L 0.506928026676178 58.50449752807617 L 0.5027605891227722 57.48656463623047 L 0.5002965331077576 56.46870803833008 L 0.49957937002182007 55.450931549072266 L 0.500652551651001 54.43324279785156 L 0.5035595297813416 53.41564178466797 L 0.5083438158035278 52.39813995361328 L 0.5150488615036011 51.38074493408203 L 0.5237181186676025 50.363460540771484 L 0.5343950390815735 49.346290588378906 L 0.5471231937408447 48.32924270629883 L 0.5619459748268127 47.31232452392578 L 0.5789068341255188 46.29553985595703 L 0.5980493426322937 45.27889633178711 L 0.6194168329238892 44.26240158081055 L 0.6430529356002808 43.24605941772461 L 0.6690009832382202 42.22987747192383 L 0.6973045468330383 41.21385955810547 L 0.7280070781707764 40.19801330566406 L 0.7611520290374756 39.182342529296875 L 0.7967828512191772 38.1668586730957 L 0.8349429965019226 37.15156555175781 L 0.8756760358810425 36.13646697998047 L 0.9190253615379333 35.12156677246094 L 0.9650344848632812 34.10688018798828 L 1.0137468576431274 33.0924072265625 L 1.0652060508728027 32.07815170288086 L 1.119455337524414 31.064125061035156 L 1.176538348197937 30.050329208374023 L 1.236498475074768 29.036773681640625 L 1.2993791103363037 28.02346420288086 L 1.365224003791809 27.010404586791992 L 1.4340764284133911 25.997600555419922 L 1.5059797763824463 24.985061645507812 L 1.5809777975082397 23.97279167175293 L 1.6591136455535889 22.960796356201172 L 1.7404310703277588 21.949085235595703 L 1.8249733448028564 20.937660217285156 L 1.9127839803695679 19.926528930664062 L 2.003906488418579 18.91569709777832 L 2.098384380340576 17.90517234802246 L 2.196261167526245 16.89495849609375 L 2.2975800037384033 15.885064125061035 L 2.4023847579956055 14.875493049621582 L 2.510718822479248 13.866253852844238 L 2.6226255893707275 12.85735034942627 L 2.7381482124328613 11.848790168762207 L 2.857330799102783 10.84057903289795 L 2.9802165031433105 9.832722663879395 L 3.1068484783172607 8.825227737426758 L 3.2372708320617676 7.818099498748779 L 3.3715267181396484 6.811344623565674 L 3.5096595287323 5.804969310760498 L 3.651712656021118 4.798979759216309 L 3.797729969024658 3.793382167816162 L 3.9477546215057373 2.788182020187378 L 4.101830005645752 1.783385992050171 L 4.260000228881836 0.7789999842643738 L 5.675333499908447 1.343074083328247 L 7.183333396911621 1.559592604637146 L 8.699999809265137 1.4170000553131104 Z" fill="none" stroke="black" stroke-width="2" /></g></svg>